<svg id="visual" viewBox="0 0 1920 1080" width="1920" height="1080" xmlns="http://www.w3.org/2000/svg" xmlns:xlink="http://www.w3.org/1999/xlink" version="1.1"><rect x="0" y="0" width="1920" height="1080" fill="#f3beb9"></rect><path d="M0 515L53.3 513.3C106.7 511.7 213.3 508.3 320 519C426.7 529.7 533.3 554.3 640 575C746.7 595.7 853.3 612.3 960 605.7C1066.7 599 1173.3 569 1280 564.7C1386.7 560.3 1493.3 581.7 1600 590.8C1706.7 600 1813.3 597 1866.7 595.5L1920 594L1920 1081L1866.7 1081C1813.3 1081 1706.7 1081 1600 1081C1493.3 1081 1386.7 1081 1280 1081C1173.3 1081 1066.7 1081 960 1081C853.3 1081 746.7 1081 640 1081C533.3 1081 426.7 1081 320 1081C213.3 1081 106.7 1081 53.3 1081L0 1081Z" fill="#f9dbbd"></path><path d="M0 648L53.3 654.7C106.7 661.3 213.3 674.7 320 674.7C426.7 674.7 533.3 661.3 640 645.7C746.7 630 853.3 612 960 619.8C1066.7 627.7 1173.3 661.3 1280 681.3C1386.7 701.3 1493.3 707.7 1600 701C1706.7 694.3 1813.3 674.7 1866.7 664.8L1920 655L1920 1081L1866.7 1081C1813.3 1081 1706.7 1081 1600 1081C1493.3 1081 1386.7 1081 1280 1081C1173.3 1081 1066.7 1081 960 1081C853.3 1081 746.7 1081 640 1081C533.3 1081 426.7 1081 320 1081C213.3 1081 106.7 1081 53.3 1081L0 1081Z" fill="#f9d1ae"></path><path d="M0 721L53.3 714.8C106.7 708.7 213.3 696.3 320 706.3C426.7 716.3 533.3 748.7 640 764.7C746.7 780.7 853.3 780.3 960 772.3C1066.7 764.3 1173.3 748.7 1280 736.7C1386.7 724.7 1493.3 716.3 1600 708.5C1706.7 700.7 1813.3 693.3 1866.7 689.7L1920 686L1920 1081L1866.7 1081C1813.3 1081 1706.7 1081 1600 1081C1493.3 1081 1386.7 1081 1280 1081C1173.3 1081 1066.7 1081 960 1081C853.3 1081 746.7 1081 640 1081C533.3 1081 426.7 1081 320 1081C213.3 1081 106.7 1081 53.3 1081L0 1081Z" fill="#fac6a0"></path><path d="M0 785L53.3 786C106.7 787 213.3 789 320 801C426.7 813 533.3 835 640 832.5C746.7 830 853.3 803 960 793.8C1066.7 784.7 1173.3 793.3 1280 803.7C1386.7 814 1493.3 826 1600 826C1706.7 826 1813.3 814 1866.7 808L1920 802L1920 1081L1866.7 1081C1813.3 1081 1706.7 1081 1600 1081C1493.3 1081 1386.7 1081 1280 1081C1173.3 1081 1066.7 1081 960 1081C853.3 1081 746.7 1081 640 1081C533.3 1081 426.7 1081 320 1081C213.3 1081 106.7 1081 53.3 1081L0 1081Z" fill="#faba93"></path><path d="M0 927L53.3 917.7C106.7 908.3 213.3 889.7 320 886.5C426.7 883.3 533.3 895.7 640 904.8C746.7 914 853.3 920 960 914.5C1066.7 909 1173.3 892 1280 895.8C1386.7 899.7 1493.3 924.3 1600 934.5C1706.7 944.7 1813.3 940.3 1866.7 938.2L1920 936L1920 1081L1866.7 1081C1813.3 1081 1706.7 1081 1600 1081C1493.3 1081 1386.7 1081 1280 1081C1173.3 1081 1066.7 1081 960 1081C853.3 1081 746.7 1081 640 1081C533.3 1081 426.7 1081 320 1081C213.3 1081 106.7 1081 53.3 1081L0 1081Z" fill="#fbae87"></path><path d="M0 948L53.3 949.5C106.7 951 213.3 954 320 961.5C426.7 969 533.3 981 640 985.7C746.7 990.3 853.3 987.7 960 987.2C1066.7 986.7 1173.3 988.3 1280 982.8C1386.7 977.3 1493.3 964.7 1600 961.5C1706.7 958.3 1813.3 964.7 1866.7 967.8L1920 971L1920 1081L1866.7 1081C1813.3 1081 1706.7 1081 1600 1081C1493.3 1081 1386.7 1081 1280 1081C1173.3 1081 1066.7 1081 960 1081C853.3 1081 746.7 1081 640 1081C533.3 1081 426.7 1081 320 1081C213.3 1081 106.7 1081 53.3 1081L0 1081Z" fill="#fca17d"></path></svg>